<svg
    width="26"
    height="26"
    viewBox="0 0 26 26"
    xmlns="http://www.w3.org/2000/svg"
  >
    <path
      fill-rule="evenodd"
      clip-rule="evenodd"
      d="M13 26C20.1797 26 26 20.1797 26 13C26 5.8203 20.1797 0 13 0C5.8203 0 0 5.8203 0 13C0 20.1797 5.8203 26 13 26ZM18.353 12.5199L14.2351 8.19887C13.9824 7.93371 13.5727 7.93371 13.32 8.19887C13.0673 8.46403 13.0673 8.89394 13.32 9.1591L16.3333 12.321H7.54248C6.81917 12.4847 6.81917 13.5153 7.54248 13.679H16.3333L13.32 16.8409C13.0673 17.1061 13.0673 17.536 13.32 17.8011C13.5727 18.0663 13.9824 18.0663 14.2351 17.8011L18.353 13.4801C18.6057 13.215 18.6057 12.785 18.353 12.5199Z"
    />
  </svg>
