<svg width="16" height="16" viewBox="0 0 16 16" fill="currentColor" xmlns="http://www.w3.org/2000/svg">
    <path d="M8.00002 12.9033C7.57246 12.9033 7.22583 13.2499 7.22583 13.6774V15.2258C7.22583 15.6534 7.57246 16 8.00002 16C8.42758 16 8.7742 15.6534 8.7742 15.2259V13.6775C8.7742 13.2499 8.42758 12.9033 8.00002 12.9033Z" />
    <path d="M8.00002 0C7.57246 0 7.22583 0.346625 7.22583 0.774188V2.32256C7.22583 2.75012 7.57246 3.09675 8.00002 3.09675C8.42758 3.09675 8.7742 2.75012 8.7742 2.32256V0.774188C8.7742 0.346625 8.42758 0 8.00002 0Z" />
    <path d="M8.0001 4.64517C6.15035 4.64523 4.64539 6.1502 4.64539 8.00001C4.64539 9.84982 6.15026 11.3548 8.00001 11.3549C9.84991 11.3549 11.355 9.84988 11.355 8.00001C11.355 6.15013 9.85001 4.64517 8.0001 4.64517Z" />
    <path d="M16 7.99999C16 7.57242 15.6534 7.2258 15.2259 7.2258H13.6775C13.2499 7.2258 12.9033 7.57242 12.9033 7.99999C12.9033 8.42755 13.2499 8.77417 13.6775 8.77417H15.2259C15.6534 8.77417 16 8.42755 16 7.99999Z" />
    <path d="M0 7.99999C0 8.42755 0.346625 8.77417 0.774188 8.77417H2.32256C2.75012 8.77417 3.09675 8.42755 3.09675 7.99999C3.09675 7.57242 2.75012 7.2258 2.32256 7.2258H0.774188C0.346625 7.2258 0 7.57242 0 7.99999Z" />
    <path d="M12.0145 4.75962C12.2126 4.75962 12.4108 4.684 12.5619 4.53284L13.6569 3.43796C13.9591 3.13562 13.9591 2.64544 13.6569 2.34309C13.3545 2.04075 12.8644 2.04075 12.5619 2.34309L11.4671 3.43796C11.1647 3.74031 11.1647 4.2305 11.4671 4.53284C11.6183 4.68402 11.8164 4.75962 12.0145 4.75962Z" />
    <path d="M2.89062 13.8836C3.08877 13.8836 3.2869 13.808 3.43802 13.6569L4.53292 12.562C4.83527 12.2597 4.83527 11.7694 4.53292 11.4671C4.23061 11.1647 3.7404 11.1647 3.43805 11.4671L2.34315 12.562C2.04081 12.8642 2.04081 13.3545 2.34315 13.6569C2.49431 13.808 2.69246 13.8836 2.89062 13.8836Z" />
    <path d="M12.562 11.4671C12.2597 11.1647 11.7695 11.1647 11.4671 11.4671C11.1648 11.7694 11.1648 12.2596 11.4671 12.562L12.562 13.6569C12.7133 13.808 12.9114 13.8836 13.1094 13.8836C13.3076 13.8836 13.5058 13.808 13.6569 13.6569C13.9591 13.3546 13.9591 12.8644 13.6569 12.562L12.562 11.4671Z" />
    <path d="M3.43805 4.53284C3.58923 4.68403 3.78737 4.75963 3.98552 4.75963C4.18368 4.75963 4.3818 4.684 4.53292 4.53284C4.83527 4.2305 4.83527 3.74032 4.53292 3.43797L3.43802 2.34307C3.13573 2.04075 2.6455 2.04075 2.34315 2.34307C2.04081 2.6454 2.04081 3.13559 2.34315 3.43794L3.43805 4.53284Z" />
  </svg>
