<svg fill="currentColor" fill="currentColor"
    xmlns="http://www.w3.org/2000/svg"
    xmlns:xlink="http://www.w3.org/1999/xlink"
    style="isolation:isolate"
    viewBox="0 0 90 87.407"
    width="90"
    height="87.407"
  >
    <path
      d=" M 79.536 54.583 C 80.721 51.087 81.327 47.412 81.327 43.703 C 81.327 39.029 80.364 34.406 78.491 30.13 C 76.652 25.95 74.024 22.16 70.737 18.994 C 67.398 15.768 63.478 13.209 59.185 11.448 C 54.683 9.61 49.861 8.664 44.996 8.673 C 40.139 8.664 35.317 9.61 30.815 11.448 C 26.522 13.209 22.602 15.768 19.263 18.994 C 15.976 22.16 13.339 25.95 11.509 30.121 C 9.636 34.406 8.673 39.029 8.673 43.703 L 8.673 43.703 C 8.673 48.378 9.636 53.001 11.509 57.277 C 12.556 59.668 13.867 61.932 15.413 64.025 L 46.401 28.959 L 50.737 37.632 L 42.931 55.846 L 61.584 34.163 L 79.536 54.583 Z  M 0 43.703 C 0 37.832 1.214 32.03 3.565 26.652 C 5.854 21.431 9.141 16.713 13.235 12.758 C 17.372 8.76 22.22 5.594 27.537 3.417 C 33.079 1.154 39.011 -0.009 44.996 0 C 50.989 -0.009 56.921 1.154 62.463 3.417 C 67.78 5.594 72.628 8.76 76.756 12.758 C 80.859 16.713 84.146 21.431 86.435 26.644 C 88.786 32.03 90 37.832 90 43.703 C 90 49.575 88.786 55.377 86.435 60.763 C 84.146 65.976 80.859 70.694 76.756 74.649 C 72.628 78.647 67.78 81.813 62.463 83.99 C 56.921 86.253 50.989 87.416 44.996 87.407 C 39.011 87.416 33.079 86.253 27.537 83.99 C 22.22 81.813 17.372 78.647 13.235 74.649 C 9.141 70.694 5.854 65.976 3.565 60.763 C 1.214 55.377 0 49.575 0 43.703 L 0 43.703 Z "
      fill-rule="evenodd"
    />
  </svg>
