<svg
    width="18"
    height="18"
    viewBox="0 0 18 18"
    fill="none"
    xmlns="http://www.w3.org/2000/svg"
  >
    <path
      fill-rule="evenodd"
      clip-rule="evenodd"
      d="M17.8535 0.646508C18.0488 0.84177 18.0488 1.15835 17.8535 1.35361L12.7071 6.50006H16C16.2761 6.50006 16.5 6.72391 16.5 7.00006C16.5 7.2762 16.2761 7.50006 16 7.50006L11.5 7.50006C11.2238 7.50006 11 7.2762 11 7.00006V2.50006C11 2.22391 11.2238 2.00006 11.5 2.00006C11.7761 2.00006 12 2.22391 12 2.50006V5.79295L17.1464 0.646508C17.3417 0.451245 17.6582 0.451246 17.8535 0.646508ZM11 11.0001C11 10.7239 11.2238 10.5001 11.5 10.5001H16C16.2761 10.5001 16.5 10.7239 16.5 11.0001C16.5 11.2762 16.2761 11.5001 16 11.5001H12.7071L17.8535 16.6465C18.0488 16.8418 18.0488 17.1584 17.8535 17.3536C17.6582 17.5489 17.3417 17.5489 17.1464 17.3536L12 12.2072V15.5001C12 15.7762 11.7761 16.0001 11.5 16.0001C11.2238 16.0001 11 15.7762 11 15.5001V11.0001ZM7.49981 7.00011C7.49981 7.27625 7.27596 7.50011 6.99981 7.50011L2.49981 7.50011C2.22367 7.50011 1.99981 7.27625 1.99981 7.00011C1.99981 6.72396 2.22367 6.50011 2.49981 6.50011H5.79271L0.646269 1.35367C0.451007 1.15841 0.451007 0.841823 0.646269 0.646562C0.841531 0.4513 1.15811 0.451299 1.35338 0.646562L6.49981 5.793V2.50011C6.49981 2.22396 6.72367 2.00011 6.99981 2.00011C7.27596 2.00011 7.49981 2.22396 7.49981 2.50011L7.49981 7.00011ZM6.99981 10.5002C7.27595 10.5002 7.49981 10.724 7.49981 11.0002V15.5002C7.49981 15.7763 7.27595 16.0002 6.99981 16.0002C6.72366 16.0002 6.49981 15.7763 6.49981 15.5002L6.49981 12.2073L1.35337 17.3537C1.15811 17.549 0.841525 17.549 0.646263 17.3537C0.451001 17.1584 0.451001 16.8419 0.646263 16.6466L5.7927 11.5002L2.49981 11.5002C2.22366 11.5002 1.99981 11.2763 1.99981 11.0002C1.99981 10.724 2.22366 10.5002 2.49981 10.5002H6.99981Z"
      fill="currentColor"
    />
  </svg>
