<svg
    xmlns="http://www.w3.org/2000/svg"
    xmlns:xlink="http://www.w3.org/1999/xlink"
    style="isolation:isolate"
    viewBox="0 0 100 100"
    width="100"
    height="100"
  >
    <path
      d=" M 50 0 C 22.386 0 0 22.386 0 50 C 0 77.614 22.386 100 50 100 C 77.614 100 100 77.614 100 50 C 100 22.386 77.614 0 50 0 Z  M 50 4.167 C 70.995 4.167 88.692 18.283 94.12 37.542 C 89.445 47.184 82.793 55.865 74.693 62.88 C 70.801 66.25 66.553 69.254 61.859 71.37 C 57.166 73.485 52.004 74.685 46.865 74.391 C 43.003 74.169 39.189 73.094 35.807 71.219 C 44.769 66.363 52.855 59.888 59.474 52.135 C 63.819 47.047 67.62 41.263 69.083 34.734 C 69.815 31.47 69.939 28.051 69.255 24.776 C 68.571 21.501 67.057 18.38 64.766 15.943 C 62.527 13.561 59.588 11.874 56.437 11.005 C 53.287 10.136 49.934 10.069 46.719 10.656 C 40.288 11.831 34.547 15.569 29.943 20.208 C 21.826 28.387 16.809 39.926 17.729 51.411 C 18.189 57.154 20.114 62.797 23.411 67.521 C 24.148 68.575 24.957 69.58 25.823 70.531 C 21.019 72.213 16.045 73.409 11 74.083 C 6.669 67.085 4.167 58.835 4.167 50 C 4.167 24.687 24.687 4.167 50 4.167 Z  M 50.292 13.427 C 53.514 13.431 56.757 14.407 59.328 16.349 C 61.644 18.099 63.36 20.588 64.333 23.323 C 65.306 26.058 65.556 29.028 65.224 31.911 C 64.56 37.679 61.651 42.968 58.135 47.589 C 51.911 55.77 43.638 62.317 34.438 66.901 C 33.496 67.37 32.539 67.816 31.578 68.245 C 29.576 66.493 27.86 64.415 26.552 62.099 C 23.819 57.26 22.918 51.511 23.448 45.979 C 23.978 40.447 25.877 35.115 28.427 30.177 C 31.384 24.452 35.415 19.029 41.057 15.917 C 43.879 14.361 47.07 13.423 50.292 13.427 Z  M 95.422 43.865 C 95.69 45.872 95.833 47.919 95.833 50 C 95.833 75.313 75.313 95.833 50 95.833 C 35.784 95.833 23.079 89.362 14.672 79.203 C 19.861 78.025 24.932 76.332 29.797 74.177 C 31.924 75.797 34.273 77.126 36.771 78.083 C 43.963 80.841 52.128 80.442 59.406 77.922 C 66.685 75.402 73.139 70.88 78.766 65.62 C 85.468 59.354 91.12 51.969 95.422 43.865 Z "
    />
  </svg>
