<svg
    width="56"
    fill="currentColor"
    height="56"
    viewBox="0 0 56 56"
    xmlns="http://www.w3.org/2000/svg"
  >
    <path
      fill-rule="evenodd"
      clip-rule="evenodd"
      d="M0 27.9863C0.0112 12.5316 12.5427 0.0015583 28.0001 0.0015583L27.9999 -0.00012207C43.4638 -0.00012207 56 12.5355 56 28C56 43.4604 43.4741 56.0002 28.0153 56.0002H4.34534C1.93831 56.0002 0 54.0618 0 51.6548V27.9863ZM24 19C24 11.8203 29.8203 6 37 6C37.7394 6 38.4554 6.08497 39.1603 6.20703C39.3947 6.2202 39.6267 6.26085 39.8517 6.32813L39.8557 6.32812L39.8595 6.32813C41.1286 6.70759 41.9987 7.87454 42.0001 9.19922C42.0001 10.8561 40.6569 12.1992 39.0001 12.1992C38.8061 12.1997 38.6124 12.1814 38.422 12.1445H38.418C37.9604 12.0494 37.4855 12 37 12C33.134 12 30 15.134 30 19V23.9219C30 25.9988 31.8477 26 31.8477 26H35.0859C36.6875 26.1408 37.944 27.4581 37.9453 29.1016C37.9453 30.4294 37.1227 31.5436 35.9648 32H28V39C28 46.1797 22.1797 52 15 52C14.2857 52 13.5855 51.9401 12.9023 51.8281C12.8828 51.8249 12.8663 51.8161 12.8497 51.8073C12.8365 51.8003 12.8233 51.7932 12.8086 51.7891C11.2314 51.6882 10.003 50.3812 10 48.8008C10 47.1439 11.3431 45.8008 13 45.8008C13.063 45.812 13.1236 45.8229 13.1826 45.8336C13.7039 45.928 14.1016 46 15 46C18.866 46 22 42.866 22 39V34.0781C22 32.0012 20.1523 32 20.1523 32H15.9844C14.8325 31.541 14.0195 30.4292 14.0195 29.1055C14.0191 27.4386 15.3077 26.1219 16.9453 26H24V19Z"
    />
  </svg>
