<svg
    width="63"
    height="65"
    viewBox="0 0 63 65"
    fill="currentColor"
    xmlns="http://www.w3.org/2000/svg"
  >
    <path
      d="M27.5314 16.5725C24.0072 22.0321 32.6483 23.7106 33.9712 22.715C39.6749 18.4223 29.0841 14.1671 27.5314 16.5725Z"
    />
    <path
      fill-rule="evenodd"
      clip-rule="evenodd"
      d="M24.4059 2.6499C18.1721 3.30684 16.9782 4.10916 11.3309 8.38186C9.43819 9.81387 5.9546 13.2982 5.06203 17.4318C4.72208 19.0061 5.12391 20.3653 6.25773 21.3185C9.1679 23.7651 13.6496 25.8416 17.8811 27.8023C18.9285 28.2876 19.9607 28.7658 20.9498 29.2408C22.41 29.9419 21.4432 31.2132 19.0885 33.2517C18.3758 33.8687 17.6329 34.5018 16.8765 35.1466C11.3272 39.8763 5.04655 45.2292 4.55301 49.4281C4.28875 51.6764 5.05844 54.7314 7.78737 56.2948C10.9752 58.1211 17.5926 56.9291 22.0113 55.2836C28.4685 52.8791 36.9505 47.5725 43.6844 42.3561C50.6869 36.9318 57.1976 30.0422 57.5196 28.9185C57.9151 27.5386 57.8757 26.2641 57.1125 24.7988C55.9925 22.6485 54.5199 21.0145 52.9277 19.2479L52.9237 19.2434C52.8134 19.121 52.7024 18.9978 52.5911 18.874C47.9746 14.0071 43.0901 9.7306 37.2461 6.45347C33.026 4.08693 29.3129 2.13279 24.4059 2.6499ZM40.8649 20.0102C40.1421 25.3055 35.5199 27.453 30.1574 26.7076C27.0306 26.273 20.7773 22.7515 21.2489 16.6577C21.7025 10.7957 28.4314 9.70419 31.5307 10.553C35.2422 11.5695 41.4155 15.9766 40.8649 20.0102Z"
    />
    <path
      fill-rule="evenodd"
      clip-rule="evenodd"
      d="M6.56325 41.8314C3.30212 45.2558 1.007 49.0253 0.99999 51.7251C0.999788 51.7962 0.998666 51.8799 0.997392 51.975C0.983068 53.044 0.949533 55.5469 1.98836 57.5571C2.01458 57.6078 2.04379 57.6659 2.07636 57.7306C2.57223 58.7163 3.8487 61.2536 7.26971 63.1839C9.59988 64.4988 12.9203 64.9825 16.1703 64.5187C26.2284 63.0833 39.6988 54.5526 49.3115 46.608C55.4379 41.5448 59.9158 36.638 61.2093 34.2221C62.2529 32.2729 62.3693 28.7754 61.7639 26.5813C60.044 20.3476 46.0651 7.58081 34.6346 2.44191C30.991 0.803857 26.5641 0.294854 22.7083 0.999997C11.1199 3.11925 2.96717 13.1433 2.27665 19.7485C1.93785 22.9892 3.68459 25.4149 4.64828 26.4856C6.67729 28.7399 10.2759 30.579 13.3451 32.1475C14.2156 32.5924 15.0435 33.0155 15.781 33.4201C10.956 37.534 8.74264 39.5428 6.56325 41.8314ZM19.0364 31.1999C15.8776 33.8669 13.7774 35.6652 11.1443 38.0718C4.80338 43.8673 0.494994 48.2787 2.71622 54.3089C5.27855 61.2651 10.8954 60.9124 17.482 59.6194C34.4598 56.2709 62.3683 34.8154 60.9458 26.8905C59.7948 20.4781 44.2026 7.72933 34.9709 3.1927C32.0868 1.77543 28.763 1.04242 25.4291 1.19928C12.735 1.79843 2.82167 13.3558 3.32808 19.6178C3.73532 24.6535 14.3262 29.1536 17.8844 30.6656C18.6309 30.9827 19.0679 31.1684 19.0364 31.1999Z"
    />
  </svg>
