<svg
    xmlns="http://www.w3.org/2000/svg"
    xmlns:xlink="http://www.w3.org/1999/xlink"
    style="isolation:isolate"
    viewBox="0 0 81.359 100"
    width="81.359"
    height="100"
  >
    <path
      d=" M 72.781 0 C 51.978 0 48.075 29.63 59.778 29.63 C 71.48 29.63 93.585 0 72.781 0 L 72.781 0 L 72.781 0 L 72.781 0 Z  M 38.238 25.959 C 44.469 26.339 51.305 2.179 39.594 3.699 C 27.887 5.218 32.004 25.578 38.238 25.959 L 38.238 25.959 L 38.238 25.959 L 38.238 25.959 Z  M 9.68 40.972 C 14.112 39.021 10.251 19.94 2.715 25.144 C -4.818 30.348 5.248 42.922 9.68 40.972 L 9.68 40.972 L 9.68 40.972 Z  M 22.167 30.984 C 27.443 29.909 27.732 8.268 18.324 12.15 C 8.914 16.033 16.896 32.062 22.167 30.984 L 22.167 30.984 L 22.167 30.984 Z  M 49.716 79.412 C 50.652 86.561 44.471 90.091 38.419 85.483 C 19.15 70.813 70.322 63.494 66.949 43.452 C 64.149 26.816 13.105 31.937 7.292 57.968 C 3.358 75.574 23.488 100 44.493 100 C 54.826 100 66.744 90.67 68.974 78.85 C 70.677 69.837 48.934 73.448 49.716 79.412 L 49.716 79.412 Z "
      fill-rule="evenodd"
    />
  </svg>
