<svg fill="currentColor" fill="currentColor"
    xmlns="http://www.w3.org/2000/svg"
    xmlns:xlink="http://www.w3.org/1999/xlink"
    style="isolation:isolate"
    viewBox="0 0 106.903 106.903"
    width="106.903"
    height="106.903"
  >
    <path
      d=" M 24.85 34.532 C 21.923 31.605 21.923 26.852 24.85 23.925 C 27.777 20.998 32.529 20.998 35.456 23.925 C 38.383 26.852 38.383 31.605 35.456 34.532 C 32.529 37.459 27.777 37.459 24.85 34.532 L 24.85 34.532 L 24.85 34.532 L 24.85 34.532 Z  M 2.195 57.186 C -0.732 54.259 -0.732 49.507 2.195 46.58 C 5.122 43.653 9.875 43.653 12.802 46.58 C 15.729 49.507 15.729 54.259 12.802 57.186 C 9.875 60.113 5.122 60.113 2.195 57.186 L 2.195 57.186 L 2.195 57.186 L 2.195 57.186 Z  M 46.58 12.802 C 43.653 9.875 43.653 5.122 46.58 2.195 C 49.507 -0.732 54.259 -0.732 57.186 2.195 C 60.113 5.122 60.113 9.875 57.186 12.802 C 54.259 15.729 49.507 15.729 46.58 12.802 L 46.58 12.802 L 46.58 12.802 Z  M 74.871 64.258 C 76.278 65.665 77.063 67.581 77.063 69.561 C 77.063 71.555 76.271 73.464 74.871 74.864 C 73.464 76.272 71.555 77.064 69.561 77.064 C 67.581 77.064 65.672 76.272 64.264 74.864 L 38.851 49.451 C 37.444 48.044 36.652 46.135 36.652 44.155 C 36.652 42.161 37.444 40.252 38.851 38.844 C 40.251 37.444 42.16 36.652 44.154 36.652 C 46.134 36.652 48.05 37.437 49.458 38.844 L 74.871 64.258 L 74.871 64.258 Z  M 61.04 27.262 C 59.633 25.855 58.841 23.946 58.848 21.959 C 58.841 19.972 59.633 18.063 61.04 16.655 C 62.447 15.248 64.356 14.456 66.343 14.463 C 68.33 14.456 70.239 15.248 71.647 16.655 L 95.519 40.527 C 102.809 47.818 106.903 57.71 106.903 68.02 C 106.903 78.329 102.802 88.229 95.519 95.512 C 88.228 102.802 78.329 106.903 68.019 106.903 C 57.71 106.903 47.817 102.809 40.527 95.519 L 16.655 71.647 C 15.248 70.24 14.456 68.331 14.463 66.344 C 14.456 64.357 15.248 62.448 16.655 61.041 C 18.062 59.633 19.971 58.841 21.958 58.848 C 23.945 58.841 25.854 59.633 27.261 61.041 L 51.133 84.912 C 55.609 89.388 61.691 91.906 68.026 91.906 C 74.348 91.906 80.429 89.388 84.912 84.905 C 89.388 80.429 91.905 74.348 91.905 68.027 C 91.905 61.691 89.388 55.61 84.912 51.134 L 61.04 27.262 Z "
      fill-rule="evenodd"
    />
  </svg>
