<svg
    width="60"
    height="60"
    viewBox="0 0 60 60"
    fill="none"
    xmlns="http://www.w3.org/2000/svg"
  >
    <path
      fill-rule="evenodd"
      clip-rule="evenodd"
      d="M25.6801 1.761C26.8551 0.586002 28.4281 0 29.9991 0C31.5711 0 33.1431 0.586002 34.3181 1.761L44.2971 11.742L16.0001 40.034V11.441L25.6801 1.761ZM10.0001 17.445L1.76013 25.683C-0.588873 28.033 -0.585875 31.964 1.76412 34.314L10.0001 42.546V17.445ZM16.0001 48.55L25.6841 58.236C28.0331 60.586 31.9681 60.589 34.3181 58.24L44.0821 48.472L30.0621 34.452L16.0001 48.519V48.55ZM48.3281 44.226L58.2381 34.317C60.5871 31.968 60.5871 28.033 58.2381 25.683L48.5391 15.984L34.3091 30.21L48.3281 44.226Z"
    />
  </svg>
