<svg
    width="19"
    height="16"
    fill="currentColor"
    viewBox="0 0 19 16"
    xmlns="http://www.w3.org/2000/svg"
  >
    <path
      d="M0.515625 0.078125V4.76562H2.85938V9.45312C2.85938 12.5781 4.8125 15.3125 7.9375 15.3125H18.0938V5.54688C18.0938 2.33359 15.4476 0.0935957 12.2344 0.078125H0.515625ZM1.6875 1.25H12.2344C14.8184 1.25 16.9219 2.96289 16.9219 5.54688V14.1406H7.9375C5.59375 14.1406 4.03125 11.7969 4.03125 9.45312V5.15625C4.03125 3.99816 3.58116 3.59375 2.46875 3.59375H1.6875V1.25Z"
    />
    <path
      d="M5.59375 2.42186V10.2344C5.59375 11.7969 6.76563 12.5781 7.9375 12.5781H13.4063C14.7047 12.5781 15.3594 11.9234 15.3594 10.625V5.54688C15.3594 4.57071 14.3562 3.98438 13.4063 3.98438C12.8308 3.98438 12.3995 4.24115 12.0271 4.62289C11.6547 4.24115 11.2473 3.98438 10.6719 3.98438C9.64203 3.98438 8.71875 4.58488 8.71875 5.54688V9.45313H9.89063V5.93753C9.89063 5.45214 10.1865 5.15628 10.6719 5.15628C11.1573 5.15628 11.4531 5.45213 11.4531 5.93753V9.45313H12.625V5.93749C12.625 5.4521 12.9208 5.15626 13.4063 5.15626C13.8917 5.15626 14.1875 5.4521 14.1875 5.93749V10.625C14.1875 11.2742 14.0555 11.4062 13.4063 11.4062L7.9375 11.4063C7.15625 11.4063 6.76563 10.625 6.76563 9.84376V2.42188L5.59375 2.42186Z"
    />
  </svg>
