<svg
    xmlns="http://www.w3.org/2000/svg"
    xmlns:xlink="http://www.w3.org/1999/xlink"
    style="isolation:isolate"
    viewBox="0 0 97.338 94.68"
    width="97.338"
    height="94.68"
  >
    <path
      d=" M 0 78.895 L 0 48.096 L 0 17.297 L 26.673 32.697 L 53.345 48.096 L 26.673 63.496 L 0 78.895 L 0 78.895 Z  M 20.588 21.19 L 18.548 23.88 L 11.958 18.85 L 14.618 15.86 C 15.578 14.79 16.578 13.76 17.628 12.78 C 22.048 8.63 27.228 5.37 32.878 3.18 C 38.338 1.08 44.138 0 49.988 0 C 56.348 0 62.648 1.27 68.518 3.75 C 74.588 6.33 80.048 10.15 84.558 14.97 C 88.698 19.39 91.958 24.57 94.148 30.22 C 96.258 35.68 97.338 41.48 97.338 47.33 C 97.338 53.69 96.058 59.99 93.578 65.86 C 90.998 71.93 87.178 77.39 82.358 81.9 C 77.938 86.04 72.768 89.3 67.108 91.49 C 61.658 93.6 55.858 94.68 50.008 94.68 C 43.638 94.68 37.338 93.4 31.478 90.92 C 25.408 88.34 19.938 84.52 15.438 79.7 L 12.708 76.78 L 19.438 72.01 L 21.278 74.24 C 25.018 78.24 29.558 81.41 34.598 83.56 C 39.478 85.62 44.718 86.68 50.008 86.68 C 54.868 86.68 59.688 85.78 64.228 84.03 C 68.918 82.21 73.218 79.5 76.898 76.06 C 80.898 72.31 84.068 67.78 86.218 62.73 C 88.278 57.86 89.338 52.62 89.338 47.33 C 89.338 42.47 88.438 37.65 86.688 33.11 C 84.868 28.41 82.158 24.11 78.718 20.44 C 74.968 16.44 70.438 13.26 65.388 11.12 C 60.518 9.06 55.278 8 49.988 8 C 45.128 8 40.298 8.89 35.768 10.64 C 31.068 12.47 26.768 15.17 23.098 18.62 C 22.228 19.44 21.388 20.29 20.588 21.19 L 20.588 21.19 Z  M 31.148 29.39 L 29.178 31.36 L 22.598 26.78 L 25.358 23.88 C 31.778 17.13 40.708 13.3 50.028 13.3 C 58.758 13.3 67.158 16.66 73.478 22.67 C 80.238 29.09 84.058 38.02 84.058 47.34 C 84.058 56.07 80.708 64.47 74.698 70.8 C 68.268 77.55 59.338 81.38 50.018 81.37 C 41.288 81.37 32.888 78.02 26.568 72.01 L 23.668 69.25 L 30.689 64.971 L 32.078 66.21 C 36.918 70.81 43.348 73.38 50.018 73.37 C 57.148 73.38 63.978 70.45 68.898 65.28 C 73.498 60.44 76.058 54.02 76.058 47.34 C 76.058 40.21 73.138 33.38 67.968 28.47 C 63.128 23.87 56.708 21.3 50.028 21.3 C 42.898 21.3 36.068 24.23 31.148 29.39 Z "
      fill-rule="evenodd"
    />
  </svg>
