<svg
    width="511"
    height="491"
    viewBox="0 0 511 491"
    xmlns="http://www.w3.org/2000/svg"
  >
    <path
      d="M506.575 227.66L453.569 163.874L497.007 103.095C504.153 93.0988 500.157 79.0326 488.82 74.2841L314.93 1.48904C306.681 -1.96514 297.145 0.744401 291.944 8.01923L255.499 59.0093L219.051 8.01923C213.854 0.744401 204.318 -1.96514 196.069 1.48904L22.1787 74.2841C10.8415 79.0326 6.84148 93.0949 13.9916 103.095L57.43 163.874L4.42434 227.66C-3.79786 237.551 -0.10976 252.603 11.7615 257.574L62.4475 278.794V398.47C62.4475 406.193 67.0869 413.16 74.2097 416.142L248.1 488.941C252.833 490.922 258.166 490.922 262.895 488.941L436.789 416.142C443.912 413.16 448.547 406.193 448.547 398.47V278.794L499.237 257.574C511.105 252.607 514.801 237.554 506.575 227.66ZM314.232 42.7326L451.873 100.354L422.696 141.181L285.047 83.5589L314.232 42.7326ZM255.499 216.783L131.215 164.755L255.499 112.725L379.784 164.755L255.499 216.783ZM196.771 42.7326L225.948 83.5589L88.3071 141.181L59.1259 100.354L196.771 42.7326ZM87.2817 187.898L224.217 245.223L187.375 289.554C174.159 284.022 63.5664 237.726 50.4437 232.229L87.2817 187.898ZM410.236 385.725L255.499 450.501L100.763 385.725V294.833L185.652 330.373C193.422 333.624 202.404 331.422 207.784 324.946L255.499 267.527L303.215 324.946C308.606 331.433 317.593 333.616 325.347 330.373L410.236 294.833V385.725ZM323.624 289.554L286.782 245.223L423.717 187.898L460.559 232.229C447.425 237.73 336.86 284.014 323.624 289.554Z"
    />
  </svg>
