<svg fill="currentColor" fill="currentColor"
    xmlns="http://www.w3.org/2000/svg"
    xmlns:xlink="http://www.w3.org/1999/xlink"
    style="isolation:isolate"
    viewBox="0 0 89.753 100"
    width="89.753"
    height="100"
  >
    <path
      d=" M 41.1 56.122 L 41.1 6.412 C 41.1 4.58 41.698 3.053 42.892 1.832 C 44.086 0.611 45.628 0 47.516 0 C 49.405 0 50.932 0.569 52.099 1.707 C 53.293 2.845 53.89 4.413 53.89 6.412 L 53.89 24.98 L 74.887 2.415 C 76.359 0.805 78.011 0 79.844 0 C 81.538 0 83.01 0.583 84.26 1.748 C 85.538 2.886 86.176 4.385 86.176 6.245 C 86.176 7.3 85.843 8.34 85.177 9.367 C 84.51 10.367 83.441 11.602 81.969 13.073 L 65.846 29.102 L 85.552 49.877 C 86.69 50.959 87.565 52.014 88.176 53.041 C 88.815 54.04 89.134 55.15 89.134 56.372 C 89.134 58.315 88.496 59.799 87.218 60.826 C 85.94 61.826 84.357 62.325 82.469 62.325 C 81.358 62.325 80.344 62.02 79.428 61.409 C 78.539 60.799 77.4 59.772 76.011 58.328 L 53.89 34.181 L 53.89 56.122 C 53.89 57.87 53.293 59.342 52.099 60.535 C 50.904 61.729 49.377 62.325 47.516 62.325 C 45.655 62.325 44.114 61.756 42.892 60.618 C 41.698 59.48 41.1 57.981 41.1 56.122 L 41.1 56.122 Z  M 9.756 80.339 L 17.951 88.919 L 31.219 79.949 L 41.755 84.629 L 45.267 100 L 56.584 99.896 L 59.705 84.125 L 70.242 79.949 L 83.51 88.529 L 89.753 79.949 L 74.696 65.748 C 36.102 101.124 2.752 46.602 35.901 23.792 L 35.901 15.602 L 31.999 17.552 L 19.902 9.866 L 11.545 16.724 L 19.121 29.641 L 14.829 40.171 L 0.046 42.625 L 0 53.82 L 15.219 57.72 L 19.414 67.957 L 9.756 80.339 L 9.756 80.339 Z "
      fill-rule="evenodd"
    />
  </svg>
