<svg
    xmlns="http://www.w3.org/2000/svg"
    xmlns:xlink="http://www.w3.org/1999/xlink"
    style="isolation:isolate"
    viewBox="1137.995 728.973 31.153 35"
    fill="currentColor"
  >
    <path
      d=" M 1149.413 733.396 C 1146.299 734.257 1143.525 736.065 1141.473 738.582 C 1139.223 741.359 1137.995 744.819 1137.995 748.392 C 1137.995 749.474 1138.107 750.555 1138.332 751.619 C 1139.067 755.106 1140.988 758.246 1143.756 760.495 C 1146.525 762.745 1149.994 763.973 1153.558 763.973 C 1154.648 763.973 1155.73 763.861 1156.785 763.636 C 1160.28 762.901 1163.412 760.989 1165.661 758.212 C 1167.911 755.443 1169.148 751.983 1169.148 748.41 C 1169.148 747.328 1169.035 746.247 1168.81 745.183 C 1168.239 742.484 1166.959 739.975 1165.099 737.933 C 1164.796 737.596 1164.364 737.388 1163.905 737.371 C 1163.447 737.345 1162.997 737.509 1162.659 737.82 C 1162.322 738.123 1162.114 738.556 1162.097 739.014 C 1162.071 739.473 1162.236 739.923 1162.538 740.26 C 1163.983 741.852 1164.978 743.799 1165.419 745.901 C 1165.592 746.723 1165.687 747.562 1165.687 748.41 C 1165.687 751.187 1164.727 753.877 1162.98 756.031 C 1161.223 758.186 1158.792 759.682 1156.076 760.253 C 1155.245 760.426 1154.406 760.513 1153.558 760.513 C 1150.781 760.513 1148.091 759.552 1145.937 757.805 C 1143.782 756.057 1142.294 753.618 1141.723 750.901 C 1141.542 750.079 1141.455 749.232 1141.455 748.392 C 1141.455 745.615 1142.415 742.925 1144.163 740.762 C 1145.655 738.923 1147.652 737.569 1149.895 736.857 L 1150.26 739.479 C 1150.433 740.719 1151.382 741.11 1152.378 740.351 L 1156.037 737.561 L 1159.695 734.772 C 1160.691 734.013 1160.556 733.019 1159.392 732.554 L 1155.1 730.84 L 1150.809 729.126 C 1149.645 728.662 1148.841 729.292 1149.014 730.533 L 1149.413 733.396 Z "
    />
  </svg>
