<svg
    xmlns="http://www.w3.org/2000/svg"
    xmlns:xlink="http://www.w3.org/1999/xlink"
    style="isolation:isolate"
    viewBox="1303.7 727.244 33.56 33.464"
    fill="currentColor"
  >
    <path
      d="M 1320.75 751.23 C 1318.75 751.23 1316.83 750.43 1315.42 749.02 C 1314 747.6 1313.21 745.68 1313.21 743.68 C 1313.21 741.68 1314 739.76 1315.42 738.35 C 1316.83 736.93 1318.75 736.14 1320.75 736.14 C 1322.75 736.14 1324.68 736.93 1326.09 738.35 C 1327.5 739.76 1328.3 741.68 1328.3 743.68 C 1328.3 745.68 1327.5 747.6 1326.09 749.02 C 1324.68 750.43 1322.75 751.23 1320.75 751.23 L 1320.75 751.23 Z  M 1328.594 757.292 L 1327.093 756.466 C 1325.288 755.474 1323.006 756.128 1322.002 757.926 L 1321.166 759.422 C 1320.161 761.22 1318.74 761.121 1317.996 759.2 L 1317.376 757.603 C 1316.631 755.682 1314.463 754.717 1312.538 755.449 L 1310.936 756.057 C 1309.01 756.789 1307.986 755.8 1308.65 753.85 L 1309.202 752.228 C 1309.866 750.278 1308.826 748.145 1306.88 747.467 L 1305.262 746.904 C 1303.317 746.227 1303.168 744.81 1304.93 743.743 L 1306.396 742.856 C 1308.158 741.789 1308.732 739.486 1307.677 737.717 L 1306.8 736.245 C 1305.745 734.476 1306.541 733.295 1308.577 733.611 L 1310.27 733.873 C 1312.306 734.188 1314.226 732.793 1314.555 730.759 L 1314.829 729.068 C 1315.158 727.035 1316.527 726.642 1317.884 728.192 L 1319.012 729.481 C 1320.369 731.032 1322.736 731.197 1324.296 729.851 L 1325.593 728.731 C 1327.152 727.385 1328.453 727.964 1328.496 730.024 L 1328.531 731.737 C 1328.574 733.796 1330.282 735.445 1332.341 735.416 L 1334.055 735.392 C 1336.114 735.363 1336.739 736.643 1335.448 738.248 L 1334.374 739.584 C 1333.083 741.189 1333.331 743.549 1334.928 744.851 L 1336.255 745.934 C 1337.852 747.236 1337.507 748.617 1335.487 749.017 L 1333.806 749.35 C 1331.785 749.75 1330.458 751.718 1330.844 753.741 L 1331.165 755.424 C 1331.551 757.448 1330.399 758.285 1328.594 757.292 L 1328.594 757.292 Z "
      fill-rule="evenodd"
    />
  </svg>
