<svg
    xmlns="http://www.w3.org/2000/svg"
    xmlns:xlink="http://www.w3.org/1999/xlink"
    style="isolation:isolate"
    viewBox="1032.87 723.63 35 37.465"
    fill="currentColor"
  >
    <path
      d="M 1054.626 730.926 L 1054.626 726.495 L 1056.575 727.236 C 1059.899 728.494 1062.756 730.735 1064.772 733.658 C 1066.787 736.582 1067.87 740.047 1067.87 743.604 C 1067.87 745.719 1067.479 747.827 1066.729 749.801 C 1065.463 753.124 1063.222 755.981 1060.299 757.997 C 1057.375 760.012 1053.91 761.095 1050.362 761.095 C 1048.238 761.095 1046.139 760.704 1044.156 759.954 C 1040.841 758.688 1037.976 756.447 1035.96 753.524 C 1033.945 750.6 1032.87 747.135 1032.87 743.587 C 1032.87 741.463 1033.253 739.364 1034.011 737.382 C 1035.66 733.05 1038.959 729.535 1043.19 727.636 L 1045.089 726.787 L 1045.089 730.926 C 1041.866 732.376 1039.159 735.557 1037.901 738.864 C 1037.326 740.372 1037.035 741.971 1037.035 743.587 C 1037.035 746.294 1037.851 748.934 1039.392 751.167 C 1040.933 753.391 1043.107 755.098 1045.639 756.056 C 1047.147 756.631 1048.746 756.931 1050.362 756.931 C 1053.069 756.931 1055.709 756.106 1057.941 754.573 C 1060.165 753.032 1061.873 750.85 1062.831 748.326 C 1063.405 746.819 1063.705 745.211 1063.705 743.604 C 1063.705 740.897 1062.881 738.248 1061.348 736.024 C 1059.807 733.8 1057.15 731.884 1054.626 730.926 Z  M 1052.26 726.15 L 1052.16 743.56 C 1052.15 744.22 1051.89 744.85 1051.41 745.32 C 1050.94 745.79 1050.31 746.05 1049.64 746.04 C 1048.98 746.04 1048.34 745.77 1047.88 745.3 C 1047.41 744.83 1047.15 744.19 1047.16 743.53 L 1047.26 726.12 C 1047.26 725.45 1047.53 724.82 1048 724.35 C 1048.47 723.89 1049.11 723.63 1049.77 723.63 C 1050.43 723.63 1051.07 723.9 1051.53 724.37 C 1052 724.84 1052.26 725.48 1052.26 726.15 Z"
      fill-rule="evenodd"
    />
  </svg>
