<svg
    width="198"
    height="348"
    viewBox="0 0 198 348"
    fill="var(--color-active)"
    xmlns="http://www.w3.org/2000/svg"
  >
    <path
      d="M189 18C193.971 18 198 13.9706 198 9C198 4.02944 193.971 0 189 0C184.029 0 180 4.02944 180 9C180 13.9706 184.029 18 189 18Z"
      fill="black"
    />
    <path
      d="M189 48C193.971 48 198 43.9706 198 39C198 34.0294 193.971 30 189 30C184.029 30 180 34.0294 180 39C180 43.9706 184.029 48 189 48Z"
      fill="black"
    />
    <path
      d="M189 78C193.971 78 198 73.9706 198 69C198 64.0294 193.971 60 189 60C184.029 60 180 64.0294 180 69C180 73.9706 184.029 78 189 78Z"
      fill="black"
    />
    <path
      d="M189 108C193.971 108 198 103.971 198 99C198 94.0294 193.971 90 189 90C184.029 90 180 94.0294 180 99C180 103.971 184.029 108 189 108Z"
      fill="black"
    />
    <path
      d="M189 138C193.971 138 198 133.971 198 129C198 124.029 193.971 120 189 120C184.029 120 180 124.029 180 129C180 133.971 184.029 138 189 138Z"
      fill="black"
    />
    <path
      d="M189 168C193.971 168 198 163.971 198 159C198 154.029 193.971 150 189 150C184.029 150 180 154.029 180 159C180 163.971 184.029 168 189 168Z"
      fill="black"
    />
    <path
      d="M189 198C193.971 198 198 193.971 198 189C198 184.029 193.971 180 189 180C184.029 180 180 184.029 180 189C180 193.971 184.029 198 189 198Z"
      fill="black"
    />
    <path
      d="M189 228C193.971 228 198 223.971 198 219C198 214.029 193.971 210 189 210C184.029 210 180 214.029 180 219C180 223.971 184.029 228 189 228Z"
      fill="black"
    />
    <path
      d="M189 258C193.971 258 198 253.971 198 249C198 244.029 193.971 240 189 240C184.029 240 180 244.029 180 249C180 253.971 184.029 258 189 258Z"
      fill="black"
    />
    <path
      d="M189 288C193.971 288 198 283.971 198 279C198 274.029 193.971 270 189 270C184.029 270 180 274.029 180 279C180 283.971 184.029 288 189 288Z"
      fill="black"
    />
    <path
      d="M189 318C193.971 318 198 313.971 198 309C198 304.029 193.971 300 189 300C184.029 300 180 304.029 180 309C180 313.971 184.029 318 189 318Z"
      fill="black"
    />
    <path
      d="M189 348C193.971 348 198 343.971 198 339C198 334.029 193.971 330 189 330C184.029 330 180 334.029 180 339C180 343.971 184.029 348 189 348Z"
      fill="black"
    />
    <path
      d="M159 18C163.971 18 168 13.9706 168 9C168 4.02944 163.971 0 159 0C154.029 0 150 4.02944 150 9C150 13.9706 154.029 18 159 18Z"
      fill="black"
    />
    <path
      d="M159 48C163.971 48 168 43.9706 168 39C168 34.0294 163.971 30 159 30C154.029 30 150 34.0294 150 39C150 43.9706 154.029 48 159 48Z"
      fill="black"
    />
    <path
      d="M159 78C163.971 78 168 73.9706 168 69C168 64.0294 163.971 60 159 60C154.029 60 150 64.0294 150 69C150 73.9706 154.029 78 159 78Z"
      fill="black"
    />
    <path
      d="M159 108C163.971 108 168 103.971 168 99C168 94.0294 163.971 90 159 90C154.029 90 150 94.0294 150 99C150 103.971 154.029 108 159 108Z"
      fill="black"
    />
    <path
      d="M159 138C163.971 138 168 133.971 168 129C168 124.029 163.971 120 159 120C154.029 120 150 124.029 150 129C150 133.971 154.029 138 159 138Z"
      fill="black"
    />
    <path
      d="M159 168C163.971 168 168 163.971 168 159C168 154.029 163.971 150 159 150C154.029 150 150 154.029 150 159C150 163.971 154.029 168 159 168Z"
      fill="black"
    />
    <path
      d="M159 198C163.971 198 168 193.971 168 189C168 184.029 163.971 180 159 180C154.029 180 150 184.029 150 189C150 193.971 154.029 198 159 198Z"
      fill="black"
    />
    <path
      d="M159 228C163.971 228 168 223.971 168 219C168 214.029 163.971 210 159 210C154.029 210 150 214.029 150 219C150 223.971 154.029 228 159 228Z"
      fill="black"
    />
    <path
      d="M159 258C163.971 258 168 253.971 168 249C168 244.029 163.971 240 159 240C154.029 240 150 244.029 150 249C150 253.971 154.029 258 159 258Z"
      fill="black"
    />
    <path
      d="M159 288C163.971 288 168 283.971 168 279C168 274.029 163.971 270 159 270C154.029 270 150 274.029 150 279C150 283.971 154.029 288 159 288Z"
      fill="black"
    />
    <path
      d="M159 318C163.971 318 168 313.971 168 309C168 304.029 163.971 300 159 300C154.029 300 150 304.029 150 309C150 313.971 154.029 318 159 318Z"
      fill="black"
    />
    <path
      d="M159 348C163.971 348 168 343.971 168 339C168 334.029 163.971 330 159 330C154.029 330 150 334.029 150 339C150 343.971 154.029 348 159 348Z"
      fill="black"
    />
    <path
      d="M129 18C133.971 18 138 13.9706 138 9C138 4.02944 133.971 0 129 0C124.029 0 120 4.02944 120 9C120 13.9706 124.029 18 129 18Z"
      fill="black"
    />
    <path
      d="M129 48C133.971 48 138 43.9706 138 39C138 34.0294 133.971 30 129 30C124.029 30 120 34.0294 120 39C120 43.9706 124.029 48 129 48Z"
      fill="black"
    />
    <path
      d="M129 78C133.971 78 138 73.9706 138 69C138 64.0294 133.971 60 129 60C124.029 60 120 64.0294 120 69C120 73.9706 124.029 78 129 78Z"
      fill="black"
    />
    <path
      d="M129 108C133.971 108 138 103.971 138 99C138 94.0294 133.971 90 129 90C124.029 90 120 94.0294 120 99C120 103.971 124.029 108 129 108Z"
      fill="black"
    />
    <path
      d="M129 138C133.971 138 138 133.971 138 129C138 124.029 133.971 120 129 120C124.029 120 120 124.029 120 129C120 133.971 124.029 138 129 138Z"
      fill="black"
    />
    <path
      d="M129 168C133.971 168 138 163.971 138 159C138 154.029 133.971 150 129 150C124.029 150 120 154.029 120 159C120 163.971 124.029 168 129 168Z"
      fill="black"
    />
    <path
      d="M129 198C133.971 198 138 193.971 138 189C138 184.029 133.971 180 129 180C124.029 180 120 184.029 120 189C120 193.971 124.029 198 129 198Z"
      fill="black"
    />
    <path
      d="M129 228C133.971 228 138 223.971 138 219C138 214.029 133.971 210 129 210C124.029 210 120 214.029 120 219C120 223.971 124.029 228 129 228Z"
      fill="black"
    />
    <path
      d="M129 258C133.971 258 138 253.971 138 249C138 244.029 133.971 240 129 240C124.029 240 120 244.029 120 249C120 253.971 124.029 258 129 258Z"
      fill="black"
    />
    <path
      d="M129 288C133.971 288 138 283.971 138 279C138 274.029 133.971 270 129 270C124.029 270 120 274.029 120 279C120 283.971 124.029 288 129 288Z"
      fill="black"
    />
    <path
      d="M129 318C133.971 318 138 313.971 138 309C138 304.029 133.971 300 129 300C124.029 300 120 304.029 120 309C120 313.971 124.029 318 129 318Z"
      fill="black"
    />
    <path
      d="M129 348C133.971 348 138 343.971 138 339C138 334.029 133.971 330 129 330C124.029 330 120 334.029 120 339C120 343.971 124.029 348 129 348Z"
      fill="black"
    />
    <path
      d="M99 18C103.971 18 108 13.9706 108 9C108 4.02944 103.971 0 99 0C94.0294 0 90 4.02944 90 9C90 13.9706 94.0294 18 99 18Z"
      fill="black"
    />
    <path
      d="M99 48C103.971 48 108 43.9706 108 39C108 34.0294 103.971 30 99 30C94.0294 30 90 34.0294 90 39C90 43.9706 94.0294 48 99 48Z"
      fill="black"
    />
    <path
      d="M99 78C103.971 78 108 73.9706 108 69C108 64.0294 103.971 60 99 60C94.0294 60 90 64.0294 90 69C90 73.9706 94.0294 78 99 78Z"
      fill="black"
    />
    <path
      d="M99 108C103.971 108 108 103.971 108 99C108 94.0294 103.971 90 99 90C94.0294 90 90 94.0294 90 99C90 103.971 94.0294 108 99 108Z"
      fill="black"
    />
    <path
      d="M99 138C103.971 138 108 133.971 108 129C108 124.029 103.971 120 99 120C94.0294 120 90 124.029 90 129C90 133.971 94.0294 138 99 138Z"
      fill="black"
    />
    <path
      d="M99 168C103.971 168 108 163.971 108 159C108 154.029 103.971 150 99 150C94.0294 150 90 154.029 90 159C90 163.971 94.0294 168 99 168Z"
      fill="black"
    />
    <path
      d="M99 198C103.971 198 108 193.971 108 189C108 184.029 103.971 180 99 180C94.0294 180 90 184.029 90 189C90 193.971 94.0294 198 99 198Z"
      fill="black"
    />
    <path
      d="M99 228C103.971 228 108 223.971 108 219C108 214.029 103.971 210 99 210C94.0294 210 90 214.029 90 219C90 223.971 94.0294 228 99 228Z"
      fill="black"
    />
    <path
      d="M99 258C103.971 258 108 253.971 108 249C108 244.029 103.971 240 99 240C94.0294 240 90 244.029 90 249C90 253.971 94.0294 258 99 258Z"
      fill="black"
    />
    <path
      d="M99 288C103.971 288 108 283.971 108 279C108 274.029 103.971 270 99 270C94.0294 270 90 274.029 90 279C90 283.971 94.0294 288 99 288Z"
      fill="black"
    />
    <path
      d="M99 318C103.971 318 108 313.971 108 309C108 304.029 103.971 300 99 300C94.0294 300 90 304.029 90 309C90 313.971 94.0294 318 99 318Z"
      fill="black"
    />
    <path
      d="M99 348C103.971 348 108 343.971 108 339C108 334.029 103.971 330 99 330C94.0294 330 90 334.029 90 339C90 343.971 94.0294 348 99 348Z"
      fill="black"
    />
    <path
      d="M69 18C73.9706 18 78 13.9706 78 9C78 4.02944 73.9706 0 69 0C64.0294 0 60 4.02944 60 9C60 13.9706 64.0294 18 69 18Z"
      fill="black"
    />
    <path
      d="M69 48C73.9706 48 78 43.9706 78 39C78 34.0294 73.9706 30 69 30C64.0294 30 60 34.0294 60 39C60 43.9706 64.0294 48 69 48Z"
      fill="black"
    />
    <path
      d="M69 78C73.9706 78 78 73.9706 78 69C78 64.0294 73.9706 60 69 60C64.0294 60 60 64.0294 60 69C60 73.9706 64.0294 78 69 78Z"
      fill="black"
    />
    <path
      d="M69 108C73.9706 108 78 103.971 78 99C78 94.0294 73.9706 90 69 90C64.0294 90 60 94.0294 60 99C60 103.971 64.0294 108 69 108Z"
      fill="black"
    />
    <path
      d="M69 138C73.9706 138 78 133.971 78 129C78 124.029 73.9706 120 69 120C64.0294 120 60 124.029 60 129C60 133.971 64.0294 138 69 138Z"
      fill="black"
    />
    <path
      d="M69 168C73.9706 168 78 163.971 78 159C78 154.029 73.9706 150 69 150C64.0294 150 60 154.029 60 159C60 163.971 64.0294 168 69 168Z"
      fill="black"
    />
    <path
      d="M69 198C73.9706 198 78 193.971 78 189C78 184.029 73.9706 180 69 180C64.0294 180 60 184.029 60 189C60 193.971 64.0294 198 69 198Z"
      fill="black"
    />
    <path
      d="M69 228C73.9706 228 78 223.971 78 219C78 214.029 73.9706 210 69 210C64.0294 210 60 214.029 60 219C60 223.971 64.0294 228 69 228Z"
      fill="black"
    />
    <path
      d="M69 258C73.9706 258 78 253.971 78 249C78 244.029 73.9706 240 69 240C64.0294 240 60 244.029 60 249C60 253.971 64.0294 258 69 258Z"
      fill="black"
    />
    <path
      d="M69 288C73.9706 288 78 283.971 78 279C78 274.029 73.9706 270 69 270C64.0294 270 60 274.029 60 279C60 283.971 64.0294 288 69 288Z"
      fill="black"
    />
    <path
      d="M69 318C73.9706 318 78 313.971 78 309C78 304.029 73.9706 300 69 300C64.0294 300 60 304.029 60 309C60 313.971 64.0294 318 69 318Z"
      fill="black"
    />
    <path
      d="M69 348C73.9706 348 78 343.971 78 339C78 334.029 73.9706 330 69 330C64.0294 330 60 334.029 60 339C60 343.971 64.0294 348 69 348Z"
      fill="black"
    />
    <path
      d="M39 18C43.9706 18 48 13.9706 48 9C48 4.02944 43.9706 0 39 0C34.0294 0 30 4.02944 30 9C30 13.9706 34.0294 18 39 18Z"
      fill="black"
    />
    <path
      d="M39 48C43.9706 48 48 43.9706 48 39C48 34.0294 43.9706 30 39 30C34.0294 30 30 34.0294 30 39C30 43.9706 34.0294 48 39 48Z"
      fill="black"
    />
    <path
      d="M39 78C43.9706 78 48 73.9706 48 69C48 64.0294 43.9706 60 39 60C34.0294 60 30 64.0294 30 69C30 73.9706 34.0294 78 39 78Z"
      fill="black"
    />
    <path
      d="M39 108C43.9706 108 48 103.971 48 99C48 94.0294 43.9706 90 39 90C34.0294 90 30 94.0294 30 99C30 103.971 34.0294 108 39 108Z"
      fill="black"
    />
    <path
      d="M39 138C43.9706 138 48 133.971 48 129C48 124.029 43.9706 120 39 120C34.0294 120 30 124.029 30 129C30 133.971 34.0294 138 39 138Z"
      fill="black"
    />
    <path
      d="M39 168C43.9706 168 48 163.971 48 159C48 154.029 43.9706 150 39 150C34.0294 150 30 154.029 30 159C30 163.971 34.0294 168 39 168Z"
      fill="black"
    />
    <path
      d="M39 198C43.9706 198 48 193.971 48 189C48 184.029 43.9706 180 39 180C34.0294 180 30 184.029 30 189C30 193.971 34.0294 198 39 198Z"
      fill="black"
    />
    <path
      d="M39 228C43.9706 228 48 223.971 48 219C48 214.029 43.9706 210 39 210C34.0294 210 30 214.029 30 219C30 223.971 34.0294 228 39 228Z"
      fill="black"
    />
    <path
      d="M39 258C43.9706 258 48 253.971 48 249C48 244.029 43.9706 240 39 240C34.0294 240 30 244.029 30 249C30 253.971 34.0294 258 39 258Z"
      fill="black"
    />
    <path
      d="M39 288C43.9706 288 48 283.971 48 279C48 274.029 43.9706 270 39 270C34.0294 270 30 274.029 30 279C30 283.971 34.0294 288 39 288Z"
      fill="black"
    />
    <path
      d="M39 318C43.9706 318 48 313.971 48 309C48 304.029 43.9706 300 39 300C34.0294 300 30 304.029 30 309C30 313.971 34.0294 318 39 318Z"
      fill="black"
    />
    <path
      d="M39 348C43.9706 348 48 343.971 48 339C48 334.029 43.9706 330 39 330C34.0294 330 30 334.029 30 339C30 343.971 34.0294 348 39 348Z"
      fill="black"
    />
    <path
      d="M9 18C13.9706 18 18 13.9706 18 9C18 4.02944 13.9706 0 9 0C4.02944 0 0 4.02944 0 9C0 13.9706 4.02944 18 9 18Z"
      fill="black"
    />
    <path
      d="M9 48C13.9706 48 18 43.9706 18 39C18 34.0294 13.9706 30 9 30C4.02944 30 0 34.0294 0 39C0 43.9706 4.02944 48 9 48Z"
      fill="black"
    />
    <path
      d="M9 78C13.9706 78 18 73.9706 18 69C18 64.0294 13.9706 60 9 60C4.02944 60 0 64.0294 0 69C0 73.9706 4.02944 78 9 78Z"
      fill="black"
    />
    <path
      d="M9 108C13.9706 108 18 103.971 18 99C18 94.0294 13.9706 90 9 90C4.02944 90 0 94.0294 0 99C0 103.971 4.02944 108 9 108Z"
      fill="black"
    />
    <path
      d="M9 138C13.9706 138 18 133.971 18 129C18 124.029 13.9706 120 9 120C4.02944 120 0 124.029 0 129C0 133.971 4.02944 138 9 138Z"
      fill="black"
    />
    <path
      d="M9 168C13.9706 168 18 163.971 18 159C18 154.029 13.9706 150 9 150C4.02944 150 0 154.029 0 159C0 163.971 4.02944 168 9 168Z"
      fill="black"
    />
    <path
      d="M9 198C13.9706 198 18 193.971 18 189C18 184.029 13.9706 180 9 180C4.02944 180 0 184.029 0 189C0 193.971 4.02944 198 9 198Z"
      fill="black"
    />
    <path
      d="M9 228C13.9706 228 18 223.971 18 219C18 214.029 13.9706 210 9 210C4.02944 210 0 214.029 0 219C0 223.971 4.02944 228 9 228Z"
      fill="black"
    />
    <path
      d="M9 258C13.9706 258 18 253.971 18 249C18 244.029 13.9706 240 9 240C4.02944 240 0 244.029 0 249C0 253.971 4.02944 258 9 258Z"
      fill="black"
    />
    <path
      d="M9 288C13.9706 288 18 283.971 18 279C18 274.029 13.9706 270 9 270C4.02944 270 0 274.029 0 279C0 283.971 4.02944 288 9 288Z"
      fill="black"
    />
    <path
      d="M9 318C13.9706 318 18 313.971 18 309C18 304.029 13.9706 300 9 300C4.02944 300 0 304.029 0 309C0 313.971 4.02944 318 9 318Z"
      fill="black"
    />
    <path
      d="M9 348C13.9706 348 18 343.971 18 339C18 334.029 13.9706 330 9 330C4.02944 330 0 334.029 0 339C0 343.971 4.02944 348 9 348Z"
      fill="black"
    />
  </svg>
