<svg
    xmlns="http://www.w3.org/2000/svg"
    xmlns:xlink="http://www.w3.org/1999/xlink"
    style="isolation:isolate"
    viewBox="1227.61 729.39 18.25 29.17"
    fill="currentColor"
  >
    <path
      d=" M 1227.61 731.89 C 1227.61 731.23 1227.87 730.59 1228.34 730.12 C 1228.81 729.66 1229.45 729.39 1230.11 729.39 C 1230.77 729.39 1231.41 729.66 1231.88 730.12 C 1232.35 730.59 1232.61 731.23 1232.61 731.89 L 1232.61 756.06 C 1232.61 756.72 1232.35 757.36 1231.88 757.83 C 1231.41 758.3 1230.77 758.56 1230.11 758.56 C 1229.45 758.56 1228.81 758.3 1228.34 757.83 C 1227.87 757.36 1227.61 756.72 1227.61 756.06 L 1227.61 731.89 Z  M 1240.86 731.89 C 1240.86 731.23 1241.12 730.59 1241.59 730.12 C 1242.06 729.66 1242.7 729.39 1243.36 729.39 C 1244.02 729.39 1244.66 729.66 1245.13 730.12 C 1245.6 730.59 1245.86 731.23 1245.86 731.89 L 1245.86 756.06 C 1245.86 756.72 1245.6 757.36 1245.13 757.83 C 1244.66 758.3 1244.02 758.56 1243.36 758.56 C 1242.7 758.56 1242.06 758.3 1241.59 757.83 C 1241.12 757.36 1240.86 756.72 1240.86 756.06 L 1240.86 731.89 Z "
      fill-rule="evenodd"
    />
  </svg>
