<svg
    width="24"
    height="24"
    viewBox="0 0 24 24"
    fill="currentColor"
    xmlns="http://www.w3.org/2000/svg"
  >
    <path
      d="M2.49998 14.5C3.88069 14.5 4.99997 13.3807 4.99997 12C4.99997 10.6193 3.88069 9.50002 2.49998 9.50002C1.11928 9.50002 0 10.6193 0 12C0 13.3807 1.11928 14.5 2.49998 14.5Z"
    />
    <path
      d="M18.997 24C20.3777 24 21.497 22.8807 21.497 21.5C21.497 20.1193 20.3777 19 18.997 19C17.6163 19 16.497 20.1193 16.497 21.5C16.497 22.8807 17.6163 24 18.997 24Z"
    />
    <path
      d="M18.997 4.99997C20.3777 4.99997 21.497 3.88069 21.497 2.49998C21.497 1.11928 20.3777 0 18.997 0C17.6163 0 16.497 1.11928 16.497 2.49998C16.497 3.88069 17.6163 4.99997 18.997 4.99997Z"
    />
    <path
      d="M12.223 6.92198C12.3347 7.11553 12.5612 7.21148 12.778 7.15697C15.3994 6.48197 18.079 8.02847 18.806 10.636C18.8668 10.8513 19.0633 10.9999 19.287 11H23.373C23.6491 11.0001 23.8731 10.7764 23.8732 10.5002C23.8732 10.4737 23.8711 10.4472 23.867 10.421C23.5778 8.60217 22.7908 6.89892 21.593 5.49998C21.4278 5.30939 21.1465 5.27166 20.937 5.412C20.3638 5.79553 19.6896 6.00019 18.9999 6C17.0884 5.9932 15.5331 4.45927 15.4999 2.54798C15.4963 2.29509 15.3044 2.08477 15.0529 2.058C13.485 1.89375 11.9005 2.10136 10.4279 2.664C10.17 2.76281 10.0411 3.05198 10.14 3.30984C10.1494 3.33441 10.1607 3.35822 10.1739 3.381L12.223 6.92198Z"
    />
    <path
      d="M23.374 13H19.288C19.0643 13 18.8678 13.1487 18.807 13.364C18.081 15.9722 15.4006 17.5191 12.779 16.843C12.5623 16.7885 12.3357 16.8844 12.224 17.078L10.18 20.619C10.0419 20.8581 10.1237 21.1639 10.3628 21.302C10.3856 21.3152 10.4094 21.3265 10.434 21.336C11.9051 21.9044 13.491 22.1122 15.059 21.942C15.3105 21.9152 15.5024 21.7048 15.506 21.452C15.5281 19.5235 17.1094 17.9781 19.0378 18.0002C19.7145 18.008 20.3743 18.2122 20.937 18.588C21.1475 18.7282 21.4295 18.6891 21.594 18.497C22.7913 17.0989 23.5783 15.3967 23.868 13.579C23.9116 13.3063 23.726 13.0499 23.4533 13.0063C23.427 13.0021 23.4005 13 23.374 13Z"
    />
    <path
      d="M10.416 15.481C8.52905 13.5435 8.52905 10.4555 10.416 8.51798C10.5724 8.35725 10.6027 8.11195 10.49 7.91798L8.44898 4.38497C8.37567 4.25789 8.25028 4.16939 8.106 4.14295C7.96266 4.11825 7.81547 4.15448 7.70002 4.24294C6.24783 5.42362 5.15583 6.9878 4.548 8.75794C4.47998 8.95533 4.54177 9.17423 4.70302 9.30694C6.19059 10.4932 6.43491 12.6607 5.24869 14.1482C5.08781 14.35 4.90477 14.533 4.70302 14.6939C4.54177 14.8266 4.47998 15.0455 4.548 15.2429C5.1562 17.0115 6.24783 18.5742 7.69898 19.7539C7.78828 19.8265 7.89989 19.866 8.01497 19.8659C8.04516 19.8657 8.07525 19.863 8.10497 19.8579C8.24925 19.8315 8.37469 19.743 8.44795 19.6159L10.4889 16.0809C10.602 15.8872 10.5721 15.642 10.416 15.481Z"
    />
  </svg>
