<svg
    width="27"
    height="27"
    viewBox="0 0 27 27"
    fill="none"
    xmlns="http://www.w3.org/2000/svg"
  >
    <path
      fill-rule="evenodd"
      clip-rule="evenodd"
      d="M13.5 27C20.9558 27 27 20.9558 27 13.5C27 6.04419 20.9558 0 13.5 0C6.04419 0 0 6.04419 0 13.5C0 20.9558 6.04419 27 13.5 27ZM11.8101 15.7068C11.6045 16.2678 11.4937 17.032 11.4773 17.9995H13.7583C13.7583 16.7637 14.0583 15.8167 14.6584 15.158L16.0024 13.8411C17.3342 12.459 18 11.0566 18 9.63403C18 8.19507 17.5642 7.06494 16.6929 6.2439C15.8298 5.41455 14.6213 5 13.0679 5C11.5718 5 10.3552 5.40649 9.41797 6.21948C8.48901 7.02441 8.01636 8.08521 8 9.40234H10.2812C10.2812 8.66235 10.5359 8.073 11.0457 7.63403C11.5552 7.19507 12.2292 6.97559 13.0679 6.97559C13.9309 6.97559 14.5886 7.21948 15.0408 7.70728C15.4929 8.18677 15.7188 8.85352 15.7188 9.70703C15.7188 10.5933 15.3735 11.4224 14.6831 12.1948L13.0679 13.8411C12.4348 14.5239 12.0156 15.146 11.8101 15.7068ZM11.7114 19.8171C11.4895 20.061 11.3787 20.366 11.3787 20.7317C11.3787 21.0977 11.4895 21.4026 11.7114 21.6462C11.8167 21.7539 11.9438 21.8372 12.0935 21.8958C12.2717 21.9653 12.4814 22 12.7227 22C13.1665 22 13.5034 21.8821 13.7336 21.6462C13.9639 21.4026 14.0789 21.0977 14.0789 20.7317C14.0789 20.366 13.9639 20.061 13.7336 19.8171C13.6191 19.6919 13.4783 19.5977 13.311 19.5347C13.1418 19.4709 12.9458 19.4392 12.7227 19.4392C12.4277 19.4392 12.1802 19.4949 11.9797 19.606C11.8782 19.6621 11.7888 19.7324 11.7114 19.8171Z"
    />
  </svg>
