<svg
    width="92"
    height="92"
    viewBox="0 0 92 92"
    fill="none"
    xmlns="http://www.w3.org/2000/svg"
  >
    <path
      d="M38.7935 55.2327V47.2344C33.0391 45.0181 29.0089 39.9177 29.0089 33.9848V14.4284C29.0089 6.46553 36.2714 0 45.2182 0H46.7818C55.7275 0 62.9899 6.46553 62.9899 14.4284V33.9848C62.9899 39.9177 58.9598 45.0181 53.2054 47.2344V55.2327H75.8905C84.7808 55.2327 92 61.6578 92 69.5713V77.6604C92 85.5749 84.7808 92 75.8905 92H16.1095C7.21812 92 0 85.5749 0 77.6604V69.5713C0 61.6578 7.21812 55.2327 16.1095 55.2327H38.7935Z"
      fill="var(--color-active)"
    />
    <path
      d="M38.7935 55.2327V47.2344C33.0391 45.0181 29.0089 39.9177 29.0089 33.9848V14.4284C29.0089 6.46553 36.2714 0 45.2182 0H46.7818C55.7275 0 62.9899 6.46553 62.9899 14.4284V33.9848C62.9899 39.9177 58.9598 45.0181 53.2054 47.2344V55.2327H75.8905C84.7808 55.2327 92 61.6578 92 69.5713V77.6604C92 85.5749 84.7808 92 75.8905 92H16.1095C7.21812 92 0 85.5749 0 77.6604V69.5713C0 61.6578 7.21812 55.2327 16.1095 55.2327H38.7935Z"
      fill="url(#paint0_linear)"
    />
    <defs>
      <linearGradient
        id="paint0_linear"
        x1="46"
        y1="0"
        x2="46"
        y2="92"
        gradientUnits="userSpaceOnUse"
      >
        <stop
          offset="0.4"
          stop-opacity="0"
        />
        <stop
          offset="0.9"
          stop-opacity="0.5"
        />
      </linearGradient>
    </defs>
  </svg>
