<svg
    xmlns="http://www.w3.org/2000/svg"
    xmlns:xlink="http://www.w3.org/1999/xlink"
    style="isolation:isolate"
    viewBox="0 0 67.156 67.383"
    width="67.156"
    height="67.383"
  >
    <path
      color="active"
      d=" M 51.334 0 C 51.295 0 51.259 0.004 51.218 0.011 C 50.552 0.618 50.254 1.816 49.918 2.732 C 49.125 5.416 48.934 8.227 48.355 10.954 C 48.034 14.867 46.648 18.815 47.597 22.745 C 47.646 23.841 49.224 23.915 49.513 22.793 C 49.733 21.894 50.171 21.149 50.344 20.24 C 51.83 14.074 52.799 7.714 52.392 1.358 C 52.293 0.869 51.919 0.012 51.334 0 L 51.334 0 Z  M 66.062 3.164 C 63.355 4.524 62.009 7.398 60.356 9.775 C 59.73 10.686 59.298 11.719 58.682 12.649 C 56.513 16.334 54.116 20.167 53.85 24.551 C 53.751 26.089 55.988 26.196 56.461 24.972 C 57.129 23.86 57.972 22.79 58.651 21.656 C 62.041 16.293 64.673 10.491 66.989 4.596 C 67.434 3.804 66.943 3.126 66.062 3.164 L 66.062 3.164 Z  M 23.351 5.122 C 23.099 5.122 22.849 5.14 22.598 5.175 C 18.468 5.947 17.066 10.481 17.829 14.171 C 18.131 17.384 18.985 20.532 19.819 23.614 C 17.138 25.711 16.718 20.217 15.502 18.645 C 13.916 15.489 12.264 11.797 8.791 10.391 C 4.982 10.004 2.626 14.415 2.911 17.771 C 2.659 21.289 4.718 24.573 4.495 27.994 C 1.306 36.352 -1.001 45.48 0.437 54.461 C 1.233 59.911 4.994 65.019 10.465 66.457 C 17.062 68.527 23.96 66.753 30.336 64.773 C 39.88 61.802 48.956 57.414 57.493 52.24 C 61.059 49.755 65.393 47.149 66.61 42.691 C 66.973 37.396 62.486 33.304 58.177 31.005 C 51.17 27.317 43.278 25.828 35.568 24.372 C 33.908 23.725 30.717 25.384 30.347 22.03 C 30.242 17.13 30.284 11.872 27.794 7.496 C 26.866 5.944 25.116 5.12 23.351 5.122 L 23.351 5.122 Z "
    />
  </svg>
