<svg
    xmlns="http://www.w3.org/2000/svg"
    xmlns:xlink="http://www.w3.org/1999/xlink"
    style="isolation:isolate"
    viewBox="179 14 90 90"
    width="90"
    height="90"
  >
    <path
      d=" M 179 59 C 179 34.164 199.164 14 224 14 C 248.836 14 269 34.164 269 59 C 269 83.836 248.836 104 224 104 C 199.164 104 179 83.836 179 59 Z  M 216.5 74.479 L 216.5 78.479 L 225.5 82.479 L 216.5 87.479 L 216.5 91.479 L 229.5 84.479 L 229.5 80.479 L 216.5 74.479 L 216.5 74.479 L 216.5 74.479 L 216.5 74.479 L 216.5 74.479 Z  M 203.5 74.479 L 203.5 78.479 L 212.5 82.479 L 203.5 87.479 L 203.5 91.479 L 216.5 84.479 L 216.5 80.479 L 203.5 74.479 L 203.5 74.479 L 203.5 74.479 L 203.5 74.479 L 203.5 74.479 Z  M 205.5 26.521 L 212.5 26.521 L 223.5 44.479 L 234.5 26.521 L 242.5 26.521 L 227.5 49.479 L 244.5 74.479 L 237.5 74.479 L 223.5 54.479 L 210.5 74.479 L 203.5 74.479 L 219.5 49.479 L 205.5 26.521 L 205.5 26.521 L 205.5 26.521 L 205.5 26.521 Z  M 232.5 78.479 L 244.5 78.479 L 244.5 81.479 L 232.5 81.479 L 232.5 78.479 L 232.5 78.479 L 232.5 78.479 Z  M 232.5 85.479 L 244.5 85.479 L 244.5 88.479 L 232.5 88.479 L 232.5 85.479 L 232.5 85.479 Z "
      fill-rule="evenodd"
    />
  </svg>
