<svg width="579" height="579" viewBox="0 0 579 579" fill="none" xmlns="http://www.w3.org/2000/svg">
<path fill-rule="evenodd" clip-rule="evenodd" d="M578.175 289.088C578.175 448.746 448.746 578.175 289.088 578.175C129.429 578.175 0 448.746 0 289.088C0 129.429 129.429 0 289.088 0C448.746 0 578.175 129.429 578.175 289.088ZM89.9132 488.262C142.737 541.086 214.383 570.763 289.087 570.763C251.735 570.763 215.912 555.924 189.5 529.512C163.088 503.1 148.25 467.277 148.25 429.925C148.25 392.573 163.088 356.75 189.5 330.338C215.912 303.926 251.735 289.087 289.087 289.087C326.44 289.087 362.262 274.249 388.675 247.837C415.087 221.425 429.925 185.602 429.925 148.25C429.925 110.898 415.087 75.075 388.675 48.6628C362.262 22.2507 326.44 7.41248 289.087 7.41248C214.383 7.41248 142.737 37.0889 89.9132 89.9132C37.0889 142.737 7.41248 214.383 7.41248 289.087C7.41248 363.792 37.0889 435.437 89.9132 488.262ZM289.088 466.988C309.557 466.988 326.15 450.394 326.15 429.925C326.15 409.456 309.557 392.863 289.088 392.863C268.618 392.863 252.025 409.456 252.025 429.925C252.025 450.394 268.618 466.988 289.088 466.988ZM326.15 148.25C326.15 168.719 309.557 185.312 289.088 185.312C268.618 185.312 252.025 168.719 252.025 148.25C252.025 127.781 268.618 111.188 289.088 111.188C309.557 111.188 326.15 127.781 326.15 148.25Z" fill="white"/>
</svg>
