<svg width="679" height="684" viewBox="0 0 679 684" fill="none" xmlns="http://www.w3.org/2000/svg">
<path d="M236.522 618.424C214.225 622.652 204.614 620.602 184.495 607.788C175.291 601.813 166 593.101 166 593.101C223.5 607.788 267.5 566.618 293.675 571.01C312.903 574.236 339.52 591.001 339.52 591.001L340 607.531C329.492 607.531 303.286 631.11 289.19 653.664C284.577 660.968 278.81 669.041 276.247 671.604C268.687 679.165 253.309 685.059 244.98 683.522C243.8 683.241 243.063 682.984 242.673 682.537C242.173 681.963 242.241 681.076 242.673 679.421C245.364 667.76 258.947 648.282 274.197 633.545C285.217 623.037 288.293 620.987 305.464 612.273C329.171 600.099 330.068 599.586 327.633 596.639C325.968 594.717 324.174 594.46 314.819 595.101C306.105 595.742 301.364 596.895 291.496 600.996C274.709 607.916 249.208 615.989 236.522 618.424Z" fill="white"/>
<path d="M442.401 618.362C464.698 622.591 474.309 620.54 494.428 607.726C503.632 601.752 512.923 593.039 512.923 593.039C455.423 607.726 411.423 566.557 385.248 570.948C366.02 574.174 339.403 590.939 339.403 590.939L338.923 607.47C349.431 607.47 375.637 631.048 389.733 653.602C394.346 660.906 400.113 668.98 402.676 671.542C410.236 679.103 425.614 684.998 433.943 683.46C435.123 683.179 435.86 682.923 436.25 682.475C436.75 681.902 436.682 681.014 436.25 679.359C433.559 667.698 419.975 648.22 404.726 633.483C393.706 622.975 390.63 620.925 373.459 612.211C349.752 600.037 348.855 599.525 351.289 596.577C352.955 594.655 354.749 594.399 364.104 595.039C372.818 595.68 377.559 596.833 387.426 600.934C404.213 607.854 429.714 615.927 442.401 618.362Z" fill="white"/>
<path d="M327 90H302.361L289.29 68.1809L276.86 90H252.128L276.476 43.7891L252 0H276.348L289.29 21.1218L302.746 0H327L303.182 43.7891L327 90Z" fill="white"/>
<path d="M402 90H377.361L364.29 68.1809L351.86 90H327.128L351.476 43.7891L327 0H351.348L364.29 21.1218L377.746 0H402L378.182 43.7891L402 90Z" fill="white"/>
<path d="M426 90H402V0H426V90Z" fill="white"/>
<path d="M336.52 422.712L316.424 445.056L265.131 387.972H305.054L336.52 422.712Z" fill="white"/>
<path d="M371.661 388.636L318.894 447.306L372.412 506.811H412.458L358.939 447.306L411.707 388.636H371.661Z" fill="white"/>
<path d="M336.52 472.217L316.424 449.873L265.131 506.957H305.054L336.52 472.217Z" fill="white"/>
<path d="M428.98 234.452C428.98 210.159 442.862 190.464 473.076 190.464C526.972 190.464 524.818 169.224 524.818 169.224L521.588 210.444C521.588 234.738 501.845 254.432 477.491 254.432C423.596 254.432 426.827 271.175 426.827 271.175L428.98 234.452Z" fill="white"/>
<path d="M249.02 234.452C249.02 210.159 235.138 190.464 204.924 190.464C151.028 190.464 153.182 169.224 153.182 169.224L156.412 210.444C156.412 234.738 176.155 254.432 200.509 254.432C254.404 254.432 251.173 271.175 251.173 271.175L249.02 234.452Z" fill="white"/>
<path d="M175.251 499.349C175.251 499.349 204.006 522.632 220.283 535.811C236.559 548.99 226.17 577.893 226.17 577.893C226.17 577.893 195.851 553.344 182.769 542.751C169.687 532.158 175.251 499.349 175.251 499.349Z" fill="white"/>
<path d="M129 542.962C129 542.962 157.756 566.246 174.032 579.425C190.308 592.604 216.418 576.43 216.418 576.43C216.418 576.43 186.099 551.881 173.016 541.288C159.934 530.695 129 542.962 129 542.962Z" fill="white"/>
<path d="M118.91 444.189C118.91 444.189 144.144 471.249 158.427 486.566C172.71 501.882 158.399 529.057 158.399 529.057C158.399 529.057 131.793 500.526 120.313 488.215C108.832 475.904 118.91 444.189 118.91 444.189Z" fill="white"/>
<path d="M67.038 480.938C67.038 480.938 92.2719 507.998 106.555 523.315C120.838 538.632 148.945 526.251 148.945 526.251C148.945 526.251 122.339 497.719 110.859 485.408C99.3787 473.097 67.038 480.938 67.038 480.938Z" fill="white"/>
<path d="M83.639 377.825C83.639 377.825 100.437 410.792 109.945 429.452C119.453 448.112 98.205 470.29 98.205 470.29C98.205 470.29 80.4939 435.53 72.8519 420.532C65.2098 405.533 83.639 377.825 83.639 377.825Z" fill="white"/>
<path d="M23.6467 398.852C23.6467 398.852 40.4444 431.82 49.9523 450.48C59.4602 469.14 89.8911 464.986 89.8911 464.986C89.8911 464.986 72.18 430.226 64.5379 415.228C56.8959 400.23 23.6467 398.852 23.6467 398.852Z" fill="white"/>
<path d="M69.276 303.224C69.276 303.224 75.701 339.662 79.3377 360.287C82.9745 380.912 56.1713 395.908 56.1713 395.908C56.1713 395.908 49.3969 357.489 46.4739 340.911C43.5509 324.334 69.276 303.224 69.276 303.224Z" fill="white"/>
<path d="M5.75718 305.793C5.75718 305.793 12.1821 342.231 15.8189 362.856C19.4556 383.481 49.7713 388.405 49.7713 388.405C49.7713 388.405 42.9969 349.986 40.0739 333.409C37.1508 316.831 5.75718 305.793 5.75718 305.793Z" fill="white"/>
<path d="M74.8761 228.242C74.8761 228.242 69.7267 264.882 66.812 285.621C63.8973 306.361 33.7719 312.34 33.7719 312.34C33.7719 312.34 39.2013 273.708 41.544 257.038C43.8868 240.369 74.8761 228.242 74.8761 228.242Z" fill="white"/>
<path d="M13.6722 211.057C13.6722 211.057 8.52276 247.697 5.60806 268.436C2.69336 289.175 30.0035 303.227 30.0035 303.227C30.0035 303.227 35.433 264.595 37.7757 247.925C40.1184 231.256 13.6722 211.057 13.6722 211.057Z" fill="white"/>
<path d="M105.903 160.035C105.903 160.035 89.1059 193.002 79.5979 211.662C70.09 230.323 39.6592 226.169 39.6592 226.169C39.6592 226.169 57.3703 191.409 65.0123 176.41C72.6544 161.412 105.903 160.035 105.903 160.035Z" fill="white"/>
<path d="M53.629 123.86C53.629 123.86 36.8314 156.827 27.3234 175.487C17.8155 194.148 39.063 216.325 39.063 216.325C39.063 216.325 56.7742 181.565 64.4162 166.567C72.0582 151.568 53.629 123.86 53.629 123.86Z" fill="white"/>
<path d="M151.744 97.6303C151.744 97.6303 128.965 126.787 116.071 143.29C103.177 159.793 74.0978 149.909 74.0978 149.909C74.0978 149.909 98.116 119.167 108.479 105.903C118.843 92.6379 151.744 97.6303 151.744 97.6303Z" fill="white"/>
<path d="M107.332 52.1456C107.332 52.1456 84.553 81.3019 71.6592 97.8052C58.7654 114.309 75.3909 140.133 75.3909 140.133C75.3909 140.133 99.4091 109.391 109.773 96.1261C120.136 82.8615 107.332 52.1456 107.332 52.1456Z" fill="white"/>
<path d="M208.501 48.9768C208.501 48.9768 178.951 71.244 162.226 83.8478C145.5 96.4516 119.97 79.3779 119.97 79.3779C119.97 79.3779 151.126 55.8999 164.57 45.7695C178.013 35.6391 208.501 48.9768 208.501 48.9768Z" fill="white"/>
<path d="M175.251 499.349C175.251 499.349 204.006 522.632 220.283 535.811C236.559 548.99 226.17 577.893 226.17 577.893C226.17 577.893 195.851 553.344 182.769 542.751C169.687 532.158 175.251 499.349 175.251 499.349Z" fill="white"/>
<path d="M129 542.962C129 542.962 157.756 566.246 174.032 579.425C190.308 592.604 216.418 576.43 216.418 576.43C216.418 576.43 186.099 551.881 173.016 541.288C159.934 530.695 129 542.962 129 542.962Z" fill="white"/>
<path d="M118.91 444.189C118.91 444.189 144.144 471.249 158.427 486.566C172.71 501.882 158.399 529.057 158.399 529.057C158.399 529.057 131.793 500.526 120.313 488.215C108.832 475.904 118.91 444.189 118.91 444.189Z" fill="white"/>
<path d="M67.038 480.938C67.038 480.938 92.2719 507.998 106.555 523.315C120.838 538.632 148.945 526.251 148.945 526.251C148.945 526.251 122.339 497.719 110.859 485.408C99.3787 473.097 67.038 480.938 67.038 480.938Z" fill="white"/>
<path d="M83.639 377.825C83.639 377.825 100.437 410.792 109.945 429.452C119.453 448.112 98.205 470.29 98.205 470.29C98.205 470.29 80.4939 435.53 72.8519 420.532C65.2098 405.533 83.639 377.825 83.639 377.825Z" fill="white"/>
<path d="M23.6467 398.852C23.6467 398.852 40.4444 431.82 49.9523 450.48C59.4602 469.14 89.8911 464.986 89.8911 464.986C89.8911 464.986 72.18 430.226 64.5379 415.228C56.8959 400.23 23.6467 398.852 23.6467 398.852Z" fill="white"/>
<path d="M69.276 303.224C69.276 303.224 75.701 339.662 79.3377 360.287C82.9745 380.912 56.1713 395.908 56.1713 395.908C56.1713 395.908 49.3969 357.489 46.4739 340.911C43.5509 324.334 69.276 303.224 69.276 303.224Z" fill="white"/>
<path d="M5.75718 305.793C5.75718 305.793 12.1821 342.231 15.8189 362.856C19.4556 383.481 49.7713 388.405 49.7713 388.405C49.7713 388.405 42.9969 349.986 40.0739 333.409C37.1508 316.831 5.75718 305.793 5.75718 305.793Z" fill="white"/>
<path d="M74.8761 228.242C74.8761 228.242 69.7267 264.882 66.812 285.621C63.8973 306.361 33.7719 312.34 33.7719 312.34C33.7719 312.34 39.2013 273.708 41.544 257.038C43.8868 240.369 74.8761 228.242 74.8761 228.242Z" fill="white"/>
<path d="M13.6722 211.057C13.6722 211.057 8.52276 247.697 5.60806 268.436C2.69336 289.175 30.0035 303.227 30.0035 303.227C30.0035 303.227 35.433 264.595 37.7757 247.925C40.1184 231.256 13.6722 211.057 13.6722 211.057Z" fill="white"/>
<path d="M105.903 160.035C105.903 160.035 89.1059 193.002 79.5979 211.662C70.09 230.323 39.6592 226.169 39.6592 226.169C39.6592 226.169 57.3703 191.409 65.0123 176.41C72.6544 161.412 105.903 160.035 105.903 160.035Z" fill="white"/>
<path d="M53.629 123.86C53.629 123.86 36.8314 156.827 27.3234 175.487C17.8155 194.148 39.063 216.325 39.063 216.325C39.063 216.325 56.7742 181.565 64.4162 166.567C72.0582 151.568 53.629 123.86 53.629 123.86Z" fill="white"/>
<path d="M151.744 97.6303C151.744 97.6303 128.965 126.787 116.071 143.29C103.177 159.793 74.0978 149.909 74.0978 149.909C74.0978 149.909 98.116 119.167 108.479 105.903C118.843 92.6379 151.744 97.6303 151.744 97.6303Z" fill="white"/>
<path d="M107.332 52.1456C107.332 52.1456 84.553 81.3019 71.6592 97.8052C58.7654 114.309 75.3909 140.133 75.3909 140.133C75.3909 140.133 99.4091 109.391 109.773 96.1261C120.136 82.8615 107.332 52.1456 107.332 52.1456Z" fill="white"/>
<path d="M208.501 48.9768C208.501 48.9768 178.951 71.244 162.226 83.8478C145.5 96.4516 119.97 79.3779 119.97 79.3779C119.97 79.3779 151.126 55.8999 164.57 45.7695C178.013 35.6391 208.501 48.9768 208.501 48.9768Z" fill="white"/>
<path d="M503.169 499.349C503.169 499.349 474.413 522.632 458.137 535.811C441.86 548.99 452.249 577.893 452.249 577.893C452.249 577.893 482.569 553.344 495.651 542.751C508.733 532.158 503.169 499.349 503.169 499.349Z" fill="white"/>
<path d="M549.42 542.962C549.42 542.962 520.664 566.246 504.388 579.425C488.111 592.604 462.002 576.43 462.002 576.43C462.002 576.43 492.321 551.881 505.403 541.288C518.485 530.695 549.42 542.962 549.42 542.962Z" fill="white"/>
<path d="M559.509 444.189C559.509 444.189 534.275 471.249 519.992 486.566C505.709 501.882 520.021 529.057 520.021 529.057C520.021 529.057 546.627 500.526 558.107 488.215C569.587 475.904 559.509 444.189 559.509 444.189Z" fill="white"/>
<path d="M611.382 480.938C611.382 480.938 586.148 507.998 571.865 523.315C557.581 538.632 529.474 526.251 529.474 526.251C529.474 526.251 556.081 497.719 567.561 485.408C579.041 473.097 611.382 480.938 611.382 480.938Z" fill="white"/>
<path d="M594.781 377.825C594.781 377.825 577.983 410.792 568.475 429.452C558.967 448.112 580.215 470.29 580.215 470.29C580.215 470.29 597.926 435.53 605.568 420.532C613.21 405.533 594.781 377.825 594.781 377.825Z" fill="white"/>
<path d="M654.773 398.852C654.773 398.852 637.975 431.82 628.467 450.48C618.959 469.14 588.528 464.986 588.528 464.986C588.528 464.986 606.24 430.226 613.882 415.228C621.524 400.23 654.773 398.852 654.773 398.852Z" fill="white"/>
<path d="M609.144 303.224C609.144 303.224 602.719 339.662 599.082 360.287C595.445 380.912 622.248 395.908 622.248 395.908C622.248 395.908 629.023 357.489 631.946 340.911C634.869 324.334 609.144 303.224 609.144 303.224Z" fill="white"/>
<path d="M672.662 305.793C672.662 305.793 666.237 342.231 662.601 362.856C658.964 383.481 628.648 388.405 628.648 388.405C628.648 388.405 635.423 349.986 638.346 333.409C641.269 316.831 672.662 305.793 672.662 305.793Z" fill="white"/>
<path d="M603.544 228.242C603.544 228.242 608.693 264.882 611.608 285.621C614.522 306.361 644.648 312.34 644.648 312.34C644.648 312.34 639.218 273.708 636.876 257.038C634.533 240.369 603.544 228.242 603.544 228.242Z" fill="white"/>
<path d="M664.747 211.057C664.747 211.057 669.897 247.697 672.812 268.436C675.726 289.175 648.416 303.227 648.416 303.227C648.416 303.227 642.987 264.595 640.644 247.925C638.301 231.256 664.747 211.057 664.747 211.057Z" fill="white"/>
<path d="M572.516 160.035C572.516 160.035 589.314 193.002 598.822 211.662C608.33 230.323 638.76 226.169 638.76 226.169C638.76 226.169 621.049 191.409 613.407 176.41C605.765 161.412 572.516 160.035 572.516 160.035Z" fill="white"/>
<path d="M624.791 123.86C624.791 123.86 641.588 156.827 651.096 175.487C660.604 194.148 639.356 216.325 639.356 216.325C639.356 216.325 621.645 181.565 614.003 166.567C606.361 151.568 624.791 123.86 624.791 123.86Z" fill="white"/>
<path d="M526.676 97.6303C526.676 97.6303 549.455 126.787 562.349 143.29C575.243 159.793 604.322 149.909 604.322 149.909C604.322 149.909 580.304 119.167 569.94 105.903C559.577 92.6379 526.676 97.6303 526.676 97.6303Z" fill="white"/>
<path d="M571.087 52.1456C571.087 52.1456 593.867 81.3019 606.76 97.8052C619.654 114.309 603.029 140.133 603.029 140.133C603.029 140.133 579.01 109.391 568.647 96.1261C558.284 82.8615 571.087 52.1456 571.087 52.1456Z" fill="white"/>
<path d="M469.919 48.9768C469.919 48.9768 499.468 71.244 516.194 83.8478C532.92 96.4516 558.45 79.3779 558.45 79.3779C558.45 79.3779 527.293 55.8999 513.85 45.7695C500.406 35.6391 469.919 48.9768 469.919 48.9768Z" fill="white"/>
<path d="M503.169 499.349C503.169 499.349 474.413 522.632 458.137 535.811C441.86 548.99 452.249 577.893 452.249 577.893C452.249 577.893 482.569 553.344 495.651 542.751C508.733 532.158 503.169 499.349 503.169 499.349Z" fill="white"/>
<path d="M549.42 542.962C549.42 542.962 520.664 566.246 504.388 579.425C488.111 592.604 462.002 576.43 462.002 576.43C462.002 576.43 492.321 551.881 505.403 541.288C518.485 530.695 549.42 542.962 549.42 542.962Z" fill="white"/>
<path d="M559.509 444.189C559.509 444.189 534.275 471.249 519.992 486.566C505.709 501.882 520.021 529.057 520.021 529.057C520.021 529.057 546.627 500.526 558.107 488.215C569.587 475.904 559.509 444.189 559.509 444.189Z" fill="white"/>
<path d="M611.382 480.938C611.382 480.938 586.148 507.998 571.865 523.315C557.581 538.632 529.474 526.251 529.474 526.251C529.474 526.251 556.081 497.719 567.561 485.408C579.041 473.097 611.382 480.938 611.382 480.938Z" fill="white"/>
<path d="M594.781 377.825C594.781 377.825 577.983 410.792 568.475 429.452C558.967 448.112 580.215 470.29 580.215 470.29C580.215 470.29 597.926 435.53 605.568 420.532C613.21 405.533 594.781 377.825 594.781 377.825Z" fill="white"/>
<path d="M654.773 398.852C654.773 398.852 637.975 431.82 628.467 450.48C618.959 469.14 588.528 464.986 588.528 464.986C588.528 464.986 606.24 430.226 613.882 415.228C621.524 400.23 654.773 398.852 654.773 398.852Z" fill="white"/>
<path d="M609.144 303.224C609.144 303.224 602.719 339.662 599.082 360.287C595.445 380.912 622.248 395.908 622.248 395.908C622.248 395.908 629.023 357.489 631.946 340.911C634.869 324.334 609.144 303.224 609.144 303.224Z" fill="white"/>
<path d="M672.662 305.793C672.662 305.793 666.237 342.231 662.601 362.856C658.964 383.481 628.648 388.405 628.648 388.405C628.648 388.405 635.423 349.986 638.346 333.409C641.269 316.831 672.662 305.793 672.662 305.793Z" fill="white"/>
<path d="M603.544 228.242C603.544 228.242 608.693 264.882 611.608 285.621C614.522 306.361 644.648 312.34 644.648 312.34C644.648 312.34 639.218 273.708 636.876 257.038C634.533 240.369 603.544 228.242 603.544 228.242Z" fill="white"/>
<path d="M664.747 211.057C664.747 211.057 669.897 247.697 672.812 268.436C675.726 289.175 648.416 303.227 648.416 303.227C648.416 303.227 642.987 264.595 640.644 247.925C638.301 231.256 664.747 211.057 664.747 211.057Z" fill="white"/>
<path d="M572.516 160.035C572.516 160.035 589.314 193.002 598.822 211.662C608.33 230.323 638.76 226.169 638.76 226.169C638.76 226.169 621.049 191.409 613.407 176.41C605.765 161.412 572.516 160.035 572.516 160.035Z" fill="white"/>
<path d="M624.791 123.86C624.791 123.86 641.588 156.827 651.096 175.487C660.604 194.148 639.356 216.325 639.356 216.325C639.356 216.325 621.645 181.565 614.003 166.567C606.361 151.568 624.791 123.86 624.791 123.86Z" fill="white"/>
<path d="M526.676 97.6303C526.676 97.6303 549.455 126.787 562.349 143.29C575.243 159.793 604.322 149.909 604.322 149.909C604.322 149.909 580.304 119.167 569.94 105.903C559.577 92.6379 526.676 97.6303 526.676 97.6303Z" fill="white"/>
<path d="M571.087 52.1456C571.087 52.1456 593.867 81.3019 606.76 97.8052C619.654 114.309 603.029 140.133 603.029 140.133C603.029 140.133 579.01 109.391 568.647 96.1261C558.284 82.8615 571.087 52.1456 571.087 52.1456Z" fill="white"/>
<path d="M469.919 48.9768C469.919 48.9768 499.468 71.244 516.194 83.8478C532.92 96.4516 558.45 79.3779 558.45 79.3779C558.45 79.3779 527.293 55.8999 513.85 45.7695C500.406 35.6391 469.919 48.9768 469.919 48.9768Z" fill="white"/>
</svg>
